<svg width="84" height="84" viewBox="0 0 84 84" fill="none" xmlns="http://www.w3.org/2000/svg">
<path fill-rule="evenodd" clip-rule="evenodd" d="M65.3988 66.8398C72.0025 60.6169 76.125 51.7899 76.125 42C76.125 23.1533 60.8467 7.875 42 7.875C23.1533 7.875 7.875 23.1533 7.875 42C7.875 51.7899 11.9975 60.6169 18.6012 66.8398C24.7104 72.5968 32.9432 76.125 42 76.125C51.0568 76.125 59.2896 72.5968 65.3988 66.8398ZM21.5079 62.3431C26.3187 56.3423 33.7106 52.5 42 52.5C50.2894 52.5 57.6813 56.3423 62.4921 62.3431C57.261 67.6123 50.0115 70.875 42 70.875C33.9885 70.875 26.739 67.6123 21.5079 62.3431ZM55.125 31.5C55.125 38.7487 49.2487 44.625 42 44.625C34.7513 44.625 28.875 38.7487 28.875 31.5C28.875 24.2513 34.7513 18.375 42 18.375C49.2487 18.375 55.125 24.2513 55.125 31.5Z" fill="#B85B2F"/>
</svg>
