<svg width="358" height="359" viewBox="0 0 358 359" fill="none" xmlns="http://www.w3.org/2000/svg">
<path fill-rule="evenodd" clip-rule="evenodd" d="M152.027 1.30527C83.957 12.2933 29.116 58.7403 7.961 123.321C1.467 143.144 0 153.456 0 179.271C0 199.303 0.296 203.734 2.296 213.605C17.009 286.226 72.045 341.262 144.666 355.975C154.537 357.975 158.968 358.271 179 358.271C199.032 358.271 203.463 357.975 213.334 355.975C285.955 341.262 340.991 286.226 355.704 213.605C357.704 203.734 358 199.303 358 179.271C358 159.239 357.704 154.808 355.704 144.937C341.037 72.5463 285.941 17.2863 213.879 2.68927C199.732 -0.175725 165.893 -0.933725 152.027 1.30527ZM201.636 2.22627C272.079 11.6043 329.449 60.3173 349.926 128.14C354.488 143.249 356.488 155.541 357.188 172.771C360.477 253.725 308.291 326.599 230.131 350.197C215.022 354.759 202.73 356.759 185.5 357.459C104.546 360.748 31.672 308.562 8.074 230.402C3.512 215.293 1.512 203.001 0.812 185.771C-3.012 91.6493 67.876 10.8343 162.5 1.43927C171.574 0.538275 192.049 0.950274 201.636 2.22627Z" fill="#DBDFDF"/>
<path fill-rule="evenodd" clip-rule="evenodd" d="M134.264 54.7174C128.408 56.5864 119.5 64.3384 119.5 67.5654C119.5 68.0604 118.612 69.4894 117.526 70.7414C116.44 71.9934 114.543 75.5504 113.311 78.6444C111.403 83.4364 111.065 86.2004 111.035 97.2714C111.003 109.279 111.2 110.691 113.625 115.771C119.624 128.338 127.584 134.112 139 134.178C152.023 134.253 160.263 127.737 164.905 113.694C169.237 100.584 168.309 86.9014 162.163 73.2714C158.864 65.9574 157.631 64.0864 153.511 60.1504C148.4 55.2684 139.983 52.8924 134.264 54.7174ZM213.185 54.7884C210.009 55.7414 203.895 60.0284 201.221 63.1774C198.116 66.8344 192.702 79.2544 191.458 85.5784C189.59 95.0764 190.627 109.036 193.739 116.271C199.117 128.775 206.938 134.312 219.084 134.213C224.941 134.165 226.98 133.68 230.853 131.41C237.279 127.644 243.02 120.066 245.48 112.102C249.771 98.2094 246.8 77.3764 239.394 69.4274C238.352 68.3094 237.5 66.7924 237.5 66.0564C237.5 65.3204 235.562 62.7814 233.194 60.4124C227.502 54.7214 220.224 52.6754 213.185 54.7884ZM61.8502 114.699C56.7782 117.792 52.2672 128.079 51.7022 137.842C50.2582 162.791 63.9972 181.771 83.5012 181.771C89.1162 181.771 90.8152 181.323 94.8122 178.788C97.5842 177.03 100.205 174.36 101.193 172.288C102.116 170.354 103.179 168.771 103.555 168.771C105.189 168.771 106.731 159.337 106.291 152.025C105.878 145.153 105.323 143.378 101.412 136.417C96.9752 128.518 88.3832 118.771 85.8572 118.771C85.1112 118.771 84.5002 118.299 84.5002 117.722C84.5002 117.145 82.5882 115.805 80.2502 114.744C74.5882 112.174 66.0252 112.153 61.8502 114.699ZM278.683 114.29C276.858 115.083 273.22 117.424 270.597 119.492C260.101 127.772 252.269 141.23 251.656 152.04C251.298 158.359 252.776 167.592 254.333 168.758C254.71 169.04 256.253 171.175 257.76 173.501C265.285 185.11 283.177 185.027 294.875 173.329C299.709 168.495 304.177 158.628 305.635 149.57C307.914 135.4 303.434 119.142 296 114.608C292.338 112.375 283.468 112.212 278.683 114.29ZM168.05 160.882C161.412 161.849 146.918 166.509 145.147 168.245C144.516 168.863 140.227 171.596 135.615 174.32C126.456 179.728 106.024 198.699 103.088 204.521C102.186 206.308 101.086 207.771 100.644 207.771C98.0982 207.771 83.5052 232.859 79.7122 243.757C77.4492 250.256 77.0982 252.891 77.1092 263.271C77.1192 273.411 77.4782 276.179 79.4222 281.126C80.6872 284.346 82.5722 287.709 83.6112 288.598C84.6502 289.488 85.5002 290.646 85.5002 291.172C85.5002 292.627 92.0892 298.349 95.7532 300.076C97.5392 300.918 101.7 302.155 105 302.825C113.831 304.617 120.176 302.984 131.124 296.102C136.006 293.034 141.586 290.308 143.525 290.046C147.297 289.535 152.263 291.612 160.406 297.108C169.917 303.528 180.234 305.417 188.128 302.186C191.978 300.61 204.518 292.974 205.53 291.59C205.821 291.191 207.933 290.566 210.222 290.2C214.733 289.478 218.062 290.813 229.862 298.07C242.601 305.905 256.677 305.098 268.243 295.87C270.034 294.44 271.5 292.79 271.5 292.201C271.5 291.613 272.575 290.197 273.89 289.054C275.204 287.911 277.31 284.342 278.569 281.123C280.459 276.289 280.87 273.271 280.929 263.771C280.991 253.661 280.646 251.183 278.075 243.271C276.466 238.321 274.877 234.046 274.544 233.771C273.761 233.125 266.5 220.791 266.5 220.108C266.5 219.034 258.175 207.771 257.381 207.771C256.925 207.771 255.819 206.355 254.925 204.625C253.108 201.113 237.449 185.095 230.5 179.642C228.025 177.699 223.33 174.633 220.066 172.828C216.803 171.023 213.504 168.918 212.736 168.15C211.967 167.381 210.963 166.985 210.505 167.268C210.046 167.552 209.52 167.441 209.335 167.023C208.777 165.757 196.424 161.882 189.5 160.801C182.027 159.634 176.468 159.655 168.05 160.882ZM167.165 204.834C168.702 205.418 170.193 206.229 170.48 206.636C171.536 208.14 178.226 212.771 179.342 212.771C179.976 212.771 182.216 211.216 184.32 209.314C188.733 205.328 195.512 203.175 200.63 204.136C203.355 204.647 204.978 205.906 207.592 209.537C210.642 213.774 211 214.96 211 220.836C211 226.276 210.455 228.441 207.813 233.479C204.315 240.152 189.135 256.357 183.795 259.119C179.803 261.183 178.224 261.188 174.2 259.151C169.296 256.669 154.016 240.652 150.306 234.105C147.435 229.039 147 227.35 147 221.271C147 214.909 147.308 213.843 150.386 209.568C152.248 206.982 154.498 204.671 155.386 204.434C158.55 203.589 164.414 203.788 167.165 204.834Z" fill="#D6C5BD"/>
</svg>
