<svg width="24" height="24" viewBox="0 0 24 24" fill="none" xmlns="http://www.w3.org/2000/svg">
<path fill-rule="evenodd" clip-rule="evenodd" d="M9.40136 4.5034C10.5558 2.50229 13.444 2.50229 14.5985 4.5034L21.9528 17.2509C23.1066 19.2509 21.6632 21.7501 19.3542 21.7501H4.64559C2.33661 21.7501 0.893183 19.2509 2.04703 17.2509L9.40136 4.5034ZM12.0001 9.75C12.4143 9.75 12.7501 10.0858 12.7501 10.5V14.25C12.7501 14.6642 12.4143 15 12.0001 15C11.5859 15 11.2501 14.6642 11.2501 14.25V10.5C11.2501 10.0858 11.5859 9.75 12.0001 9.75ZM12.0001 18C12.4143 18 12.7501 17.6642 12.7501 17.25C12.7501 16.8358 12.4143 16.5 12.0001 16.5C11.5859 16.5 11.2501 16.8358 11.2501 17.25C11.2501 17.6642 11.5859 18 12.0001 18Z" fill="#a81928"/>
</svg>
