<svg width="256" height="251" viewBox="0 0 256 251" fill="none" xmlns="http://www.w3.org/2000/svg">
<path fill-rule="evenodd" clip-rule="evenodd" d="M83.2642 1.71738C77.4082 3.58638 68.5002 11.3384 68.5002 14.5654C68.5002 15.0604 67.6122 16.4894 66.5262 17.7414C65.4402 18.9934 63.5432 22.5504 62.3112 25.6444C60.4032 30.4364 60.0652 33.2004 60.0352 44.2714C60.0032 56.2794 60.2002 57.6914 62.6252 62.7714C68.6242 75.3384 76.5842 81.1124 88.0002 81.1784C101.023 81.2534 109.263 74.7374 113.905 60.6944C118.237 47.5844 117.309 33.9014 111.163 20.2714C107.864 12.9574 106.631 11.0864 102.511 7.15038C97.4002 2.26838 88.9832 -0.10762 83.2642 1.71738ZM162.185 1.78838C159.009 2.74138 152.895 7.02838 150.221 10.1774C147.116 13.8344 141.702 26.2544 140.458 32.5784C138.59 42.0764 139.627 56.0364 142.739 63.2714C148.117 75.7754 155.938 81.3124 168.084 81.2134C173.941 81.1654 175.98 80.6804 179.853 78.4104C186.279 74.6444 192.02 67.0664 194.48 59.1024C198.771 45.2094 195.8 24.3764 188.394 16.4274C187.352 15.3094 186.5 13.7924 186.5 13.0564C186.5 12.3204 184.562 9.78138 182.194 7.41238C176.502 1.72138 169.224 -0.32462 162.185 1.78838ZM10.8502 61.6994C5.77818 64.7924 1.26718 75.0794 0.702181 84.8424C-0.741819 109.791 12.9972 128.771 32.5012 128.771C38.1162 128.771 39.8152 128.323 43.8122 125.788C46.5842 124.03 49.2052 121.36 50.1932 119.288C51.1162 117.354 52.1792 115.771 52.5552 115.771C54.1892 115.771 55.7312 106.337 55.2912 99.0254C54.8782 92.1534 54.3232 90.3784 50.4122 83.4174C45.9752 75.5184 37.3832 65.7714 34.8572 65.7714C34.1112 65.7714 33.5002 65.2994 33.5002 64.7224C33.5002 64.1454 31.5882 62.8054 29.2502 61.7444C23.5882 59.1744 15.0252 59.1534 10.8502 61.6994ZM227.683 61.2904C225.858 62.0834 222.22 64.4244 219.597 66.4924C209.101 74.7724 201.269 88.2304 200.656 99.0404C200.298 105.359 201.776 114.592 203.333 115.758C203.71 116.04 205.253 118.175 206.76 120.501C214.285 132.11 232.177 132.027 243.875 120.329C248.709 115.495 253.177 105.628 254.635 96.5704C256.914 82.4004 252.434 66.1424 245 61.6084C241.338 59.3754 232.468 59.2124 227.683 61.2904ZM117.05 107.882C110.412 108.849 95.9182 113.509 94.1472 115.245C93.5162 115.863 89.2272 118.596 84.6152 121.32C75.4562 126.728 55.0242 145.699 52.0882 151.521C51.1862 153.308 50.0862 154.771 49.6442 154.771C47.0982 154.771 32.5052 179.859 28.7122 190.757C26.4492 197.256 26.0982 199.891 26.1092 210.271C26.1192 220.411 26.4782 223.179 28.4222 228.126C29.6872 231.346 31.5722 234.709 32.6112 235.598C33.6502 236.488 34.5002 237.646 34.5002 238.172C34.5002 239.627 41.0892 245.349 44.7532 247.076C46.5392 247.918 50.7002 249.155 54.0002 249.825C62.8312 251.617 69.1762 249.984 80.1242 243.102C85.0062 240.034 90.5862 237.308 92.5252 237.046C96.2972 236.535 101.263 238.612 109.406 244.108C118.917 250.528 129.234 252.417 137.128 249.186C140.978 247.61 153.518 239.974 154.53 238.59C154.821 238.191 156.933 237.566 159.222 237.2C163.733 236.478 167.062 237.813 178.862 245.07C191.601 252.905 205.677 252.098 217.243 242.87C219.034 241.44 220.5 239.79 220.5 239.201C220.5 238.613 221.575 237.197 222.89 236.054C224.204 234.911 226.31 231.342 227.569 228.123C229.459 223.289 229.87 220.271 229.929 210.771C229.991 200.661 229.646 198.183 227.075 190.271C225.466 185.321 223.877 181.046 223.544 180.771C222.761 180.125 215.5 167.791 215.5 167.108C215.5 166.034 207.175 154.771 206.381 154.771C205.925 154.771 204.819 153.355 203.925 151.625C202.108 148.113 186.449 132.095 179.5 126.642C177.025 124.699 172.33 121.633 169.066 119.828C165.803 118.023 162.504 115.918 161.736 115.15C160.967 114.381 159.963 113.985 159.505 114.268C159.046 114.552 158.52 114.441 158.335 114.023C157.777 112.757 145.424 108.882 138.5 107.801C131.027 106.634 125.468 106.655 117.05 107.882ZM116.165 151.834C117.702 152.418 119.193 153.229 119.48 153.636C120.536 155.14 127.226 159.771 128.342 159.771C128.976 159.771 131.216 158.216 133.32 156.314C137.733 152.328 144.512 150.175 149.63 151.136C152.355 151.647 153.978 152.906 156.592 156.537C159.642 160.774 160 161.96 160 167.836C160 173.276 159.455 175.441 156.813 180.479C153.315 187.152 138.135 203.357 132.795 206.119C128.803 208.183 127.224 208.188 123.2 206.151C118.296 203.669 103.016 187.652 99.3062 181.105C96.4352 176.039 96.0002 174.35 96.0002 168.271C96.0002 161.909 96.3082 160.843 99.3862 156.568C101.248 153.982 103.498 151.671 104.386 151.434C107.55 150.589 113.414 150.788 116.165 151.834Z" fill="currentColor"/>
</svg>
